# xmcd
#
# Track frame offsets:
#	150
#	83479
#	132770
#	158158
#
# Disc length: 3539 seconds
#
# Revision: 1
# Processed by: cddbd v1.5.2PL0 Copyright (c) Steve Scherf et al.
# Submitted via: dBpowerAMP V4.0
#
DISCID=220dd104
DTITLE=חסידי -  רוגע
DYEAR=1995
DGENRE=Folk
TTITLE0=מנגינה 1
TTITLE1=מנגינה 2
TTITLE2=מנגינה 3
TTITLE3=מנגינה 4
EXTD=hadidish roga
EXTT0=
EXTT1=
EXTT2=
EXTT3=
PLAYORDER=
